<svg xmlns="http://www.w3.org/2000/svg" viewBox="0 0 64 64" role="img" aria-label="RedTransporte">
  <defs>
    <linearGradient id="g" x1="8" x2="56" y1="8" y2="56" gradientUnits="userSpaceOnUse">
      <stop stop-color="#22d3ee" />
      <stop offset="1" stop-color="#14b8a6" />
    </linearGradient>
  </defs>
  <rect width="64" height="64" rx="18" fill="#082f49" />
  <path fill="url(#g)" d="M18 21c0-3.3 2.7-6 6-6h16c3.3 0 6 2.7 6 6v18c0 3.3-2.7 6-6 6H24c-3.3 0-6-2.7-6-6V21Zm7 2v12h14V23H25Zm2 26h-5l-4 6h5l4-6Zm15 0h-5l4 6h5l-4-6Z" />
  <circle cx="25" cy="39" r="3" fill="#ecfeff" />
  <circle cx="39" cy="39" r="3" fill="#ecfeff" />
</svg>
